<svg width="380" height="161" viewBox="0 0 380 161" fill="none" xmlns="http://www.w3.org/2000/svg">
<path d="M93.44 36.96C90.36 36.96 88 37.9 86.36 39.78C84.72 41.66 83.9 44.32 83.9 47.76C83.9 51.24 84.8 53.92 86.6 55.8C88.44 57.68 90.9 58.62 93.98 58.62C95.62 58.62 97 58.4 98.12 57.96C99.28 57.52 100.38 57.02 101.42 56.46C102.1 57.02 102.62 57.7 102.98 58.5C103.38 59.26 103.58 60.16 103.58 61.2C103.58 62.84 102.66 64.24 100.82 65.4C99.02 66.52 96.26 67.08 92.54 67.08C89.86 67.08 87.34 66.7 84.98 65.94C82.62 65.18 80.56 64.02 78.8 62.46C77.04 60.86 75.64 58.86 74.6 56.46C73.6 54.02 73.1 51.12 73.1 47.76C73.1 44.64 73.58 41.9 74.54 39.54C75.54 37.14 76.88 35.12 78.56 33.48C80.28 31.84 82.28 30.6 84.56 29.76C86.84 28.92 89.28 28.5 91.88 28.5C95.56 28.5 98.4 29.1 100.4 30.3C102.44 31.5 103.46 33.04 103.46 34.92C103.46 35.96 103.2 36.86 102.68 37.62C102.16 38.38 101.56 38.98 100.88 39.42C99.84 38.74 98.72 38.16 97.52 37.68C96.36 37.2 95 36.96 93.44 36.96ZM117.796 30.72C118.476 30.32 119.496 29.94 120.856 29.58C122.256 29.22 123.656 29.04 125.056 29.04C127.056 29.04 128.816 29.34 130.336 29.94C131.896 30.5 132.896 31.4 133.336 32.64C134.056 34.72 134.836 37.14 135.676 39.9C136.516 42.66 137.356 45.52 138.196 48.48C139.036 51.4 139.856 54.3 140.656 57.18C141.456 60.02 142.156 62.54 142.756 64.74C142.276 65.3 141.556 65.74 140.596 66.06C139.636 66.42 138.496 66.6 137.176 66.6C136.216 66.6 135.396 66.52 134.716 66.36C134.076 66.2 133.536 65.96 133.096 65.64C132.696 65.32 132.356 64.9 132.076 64.38C131.836 63.86 131.616 63.26 131.416 62.58L130.336 58.44H119.476C119.156 59.64 118.836 60.88 118.516 62.16C118.196 63.44 117.876 64.68 117.556 65.88C116.996 66.08 116.396 66.24 115.756 66.36C115.156 66.52 114.416 66.6 113.536 66.6C111.496 66.6 109.976 66.26 108.976 65.58C108.016 64.86 107.536 63.88 107.536 62.64C107.536 62.08 107.616 61.52 107.776 60.96C107.936 60.4 108.116 59.74 108.316 58.98C108.596 57.9 108.976 56.56 109.456 54.96C109.976 53.36 110.536 51.64 111.136 49.8C111.736 47.92 112.376 46 113.056 44.04C113.736 42.08 114.376 40.24 114.976 38.52C115.576 36.76 116.116 35.2 116.596 33.84C117.116 32.48 117.516 31.44 117.796 30.72ZM124.996 38.46C124.436 40.14 123.796 42.02 123.076 44.1C122.396 46.14 121.776 48.22 121.216 50.34H128.656C128.096 48.18 127.516 46.08 126.916 44.04C126.356 41.96 125.836 40.1 125.356 38.46H124.996ZM158.113 54.24V65.76C157.673 65.88 156.973 66 156.013 66.12C155.093 66.24 154.173 66.3 153.253 66.3C152.333 66.3 151.513 66.22 150.793 66.06C150.113 65.94 149.533 65.7 149.053 65.34C148.613 64.98 148.273 64.48 148.033 63.84C147.793 63.2 147.673 62.36 147.673 61.32V33.06C147.673 32.22 147.893 31.58 148.333 31.14C148.813 30.66 149.453 30.28 150.253 30C151.613 29.52 153.193 29.18 154.993 28.98C156.793 28.74 158.713 28.62 160.753 28.62C166.273 28.62 170.433 29.78 173.233 32.1C176.033 34.42 177.433 37.56 177.433 41.52C177.433 44 176.793 46.12 175.513 47.88C174.233 49.64 172.713 51 170.953 51.96C172.393 53.92 173.813 55.76 175.213 57.48C176.613 59.2 177.713 60.76 178.513 62.16C178.113 63.56 177.373 64.64 176.293 65.4C175.253 66.12 174.073 66.48 172.753 66.48C171.873 66.48 171.113 66.38 170.473 66.18C169.833 65.98 169.273 65.7 168.793 65.34C168.313 64.98 167.873 64.54 167.473 64.02C167.073 63.5 166.693 62.94 166.333 62.34L161.293 54.24H158.113ZM161.893 46.26C163.413 46.26 164.613 45.88 165.493 45.12C166.373 44.32 166.813 43.16 166.813 41.64C166.813 40.12 166.313 38.98 165.313 38.22C164.353 37.42 162.813 37.02 160.693 37.02C160.093 37.02 159.613 37.04 159.253 37.08C158.893 37.12 158.493 37.18 158.053 37.26V46.26H161.893ZM192.445 30.72C193.125 30.32 194.145 29.94 195.505 29.58C196.905 29.22 198.305 29.04 199.705 29.04C201.705 29.04 203.465 29.34 204.985 29.94C206.545 30.5 207.545 31.4 207.985 32.64C208.705 34.72 209.485 37.14 210.325 39.9C211.165 42.66 212.005 45.52 212.845 48.48C213.685 51.4 214.505 54.3 215.305 57.18C216.105 60.02 216.805 62.54 217.405 64.74C216.925 65.3 216.205 65.74 215.245 66.06C214.285 66.42 213.145 66.6 211.825 66.6C210.865 66.6 210.045 66.52 209.365 66.36C208.725 66.2 208.185 65.96 207.745 65.64C207.345 65.32 207.005 64.9 206.725 64.38C206.485 63.86 206.265 63.26 206.065 62.58L204.985 58.44H194.125C193.805 59.64 193.485 60.88 193.165 62.16C192.845 63.44 192.525 64.68 192.205 65.88C191.645 66.08 191.045 66.24 190.405 66.36C189.805 66.52 189.065 66.6 188.185 66.6C186.145 66.6 184.625 66.26 183.625 65.58C182.665 64.86 182.185 63.88 182.185 62.64C182.185 62.08 182.265 61.52 182.425 60.96C182.585 60.4 182.765 59.74 182.965 58.98C183.245 57.9 183.625 56.56 184.105 54.96C184.625 53.36 185.185 51.64 185.785 49.8C186.385 47.92 187.025 46 187.705 44.04C188.385 42.08 189.025 40.24 189.625 38.52C190.225 36.76 190.765 35.2 191.245 33.84C191.765 32.48 192.165 31.44 192.445 30.72ZM199.645 38.46C199.085 40.14 198.445 42.02 197.725 44.1C197.045 46.14 196.425 48.22 195.865 50.34H203.305C202.745 48.18 202.165 46.08 201.565 44.04C201.005 41.96 200.485 40.1 200.005 38.46H199.645ZM232.534 47.76C232.534 44.64 233.014 41.88 233.974 39.48C234.974 37.08 236.314 35.08 237.994 33.48C239.714 31.84 241.714 30.6 243.994 29.76C246.314 28.92 248.814 28.5 251.494 28.5C254.174 28.5 256.654 28.92 258.934 29.76C261.254 30.6 263.274 31.84 264.994 33.48C266.714 35.08 268.054 37.08 269.014 39.48C270.014 41.88 270.514 44.64 270.514 47.76C270.514 50.88 270.034 53.66 269.074 56.1C268.114 58.5 266.774 60.52 265.054 62.16C263.374 63.76 261.374 64.98 259.054 65.82C256.734 66.66 254.214 67.08 251.494 67.08C248.774 67.08 246.254 66.66 243.934 65.82C241.614 64.94 239.614 63.68 237.934 62.04C236.254 60.4 234.934 58.38 233.974 55.98C233.014 53.58 232.534 50.84 232.534 47.76ZM243.334 47.76C243.334 51.4 244.074 54.12 245.554 55.92C247.034 57.72 249.014 58.62 251.494 58.62C254.014 58.62 256.014 57.72 257.494 55.92C258.974 54.12 259.714 51.4 259.714 47.76C259.714 44.16 258.974 41.46 257.494 39.66C256.054 37.86 254.074 36.96 251.554 36.96C249.074 36.96 247.074 37.86 245.554 39.66C244.074 41.42 243.334 44.12 243.334 47.76ZM308.741 52.56C308.741 54.72 308.361 56.7 307.601 58.5C306.881 60.26 305.821 61.78 304.421 63.06C303.021 64.3 301.321 65.26 299.321 65.94C297.321 66.62 295.061 66.96 292.541 66.96C290.021 66.96 287.761 66.62 285.761 65.94C283.761 65.26 282.061 64.3 280.661 63.06C279.261 61.78 278.181 60.26 277.421 58.5C276.701 56.7 276.341 54.72 276.341 52.56V29.64C276.781 29.56 277.481 29.46 278.441 29.34C279.401 29.18 280.321 29.1 281.201 29.1C282.121 29.1 282.921 29.18 283.601 29.34C284.321 29.46 284.921 29.7 285.401 30.06C285.881 30.42 286.241 30.92 286.481 31.56C286.721 32.2 286.841 33.04 286.841 34.08V52.38C286.841 54.3 287.361 55.8 288.401 56.88C289.481 57.96 290.861 58.5 292.541 58.5C294.261 58.5 295.641 57.96 296.681 56.88C297.721 55.8 298.241 54.3 298.241 52.38V29.64C298.681 29.56 299.381 29.46 300.341 29.34C301.301 29.18 302.221 29.1 303.101 29.1C304.021 29.1 304.821 29.18 305.501 29.34C306.221 29.46 306.821 29.7 307.301 30.06C307.781 30.42 308.141 30.92 308.381 31.56C308.621 32.2 308.741 33.04 308.741 34.08V52.56Z" fill="white"/>
<path d="M97.798 83.732C93.8453 83.732 90.8167 84.9383 88.712 87.351C86.6073 89.7637 85.555 93.1773 85.555 97.592C85.555 102.058 86.71 105.497 89.02 107.91C91.3813 110.323 94.5383 111.529 98.491 111.529C100.596 111.529 102.367 111.247 103.804 110.682C105.293 110.117 106.704 109.476 108.039 108.757C108.912 109.476 109.579 110.348 110.041 111.375C110.554 112.35 110.811 113.505 110.811 114.84C110.811 116.945 109.63 118.741 107.269 120.23C104.959 121.667 101.417 122.386 96.643 122.386C93.2037 122.386 89.9697 121.898 86.941 120.923C83.9123 119.948 81.2687 118.459 79.01 116.457C76.7513 114.404 74.9547 111.837 73.62 108.757C72.3367 105.626 71.695 101.904 71.695 97.592C71.695 93.588 72.311 90.0717 73.543 87.043C74.8263 83.963 76.546 81.3707 78.702 79.266C80.9093 77.1613 83.476 75.57 86.402 74.492C89.328 73.414 92.4593 72.875 95.796 72.875C100.519 72.875 104.163 73.645 106.73 75.185C109.348 76.725 110.657 78.7013 110.657 81.114C110.657 82.4487 110.323 83.6037 109.656 84.579C108.989 85.5543 108.219 86.3243 107.346 86.889C106.011 86.0163 104.574 85.272 103.034 84.656C101.545 84.04 99.8 83.732 97.798 83.732ZM114.932 97.592C114.932 93.588 115.548 90.046 116.78 86.966C118.064 83.886 119.783 81.3193 121.939 79.266C124.147 77.1613 126.713 75.57 129.639 74.492C132.617 73.414 135.825 72.875 139.264 72.875C142.704 72.875 145.886 73.414 148.812 74.492C151.79 75.57 154.382 77.1613 156.589 79.266C158.797 81.3193 160.516 83.886 161.748 86.966C163.032 90.046 163.673 93.588 163.673 97.592C163.673 101.596 163.057 105.164 161.825 108.295C160.593 111.375 158.874 113.967 156.666 116.072C154.51 118.125 151.944 119.691 148.966 120.769C145.989 121.847 142.755 122.386 139.264 122.386C135.774 122.386 132.54 121.847 129.562 120.769C126.585 119.64 124.018 118.023 121.862 115.918C119.706 113.813 118.012 111.221 116.78 108.141C115.548 105.061 114.932 101.545 114.932 97.592ZM128.792 97.592C128.792 102.263 129.742 105.754 131.641 108.064C133.541 110.374 136.082 111.529 139.264 111.529C142.498 111.529 145.065 110.374 146.964 108.064C148.864 105.754 149.813 102.263 149.813 97.592C149.813 92.972 148.864 89.507 146.964 87.197C145.116 84.887 142.575 83.732 139.341 83.732C136.159 83.732 133.592 84.887 131.641 87.197C129.742 89.4557 128.792 92.9207 128.792 97.592ZM184.781 105.908V120.692C184.216 120.846 183.318 121 182.086 121.154C180.905 121.308 179.725 121.385 178.544 121.385C177.363 121.385 176.311 121.282 175.387 121.077C174.514 120.923 173.77 120.615 173.154 120.153C172.589 119.691 172.153 119.049 171.845 118.228C171.537 117.407 171.383 116.329 171.383 114.994V78.727C171.383 77.649 171.665 76.8277 172.23 76.263C172.846 75.647 173.667 75.1593 174.694 74.8C176.439 74.184 178.467 73.7477 180.777 73.491C183.087 73.183 185.551 73.029 188.169 73.029C195.253 73.029 200.592 74.5177 204.185 77.495C207.778 80.4723 209.575 84.502 209.575 89.584C209.575 92.7667 208.754 95.4873 207.111 97.746C205.468 100.005 203.518 101.75 201.259 102.982C203.107 105.497 204.929 107.859 206.726 110.066C208.523 112.273 209.934 114.275 210.961 116.072C210.448 117.869 209.498 119.255 208.112 120.23C206.777 121.154 205.263 121.616 203.569 121.616C202.44 121.616 201.464 121.488 200.643 121.231C199.822 120.974 199.103 120.615 198.487 120.153C197.871 119.691 197.306 119.126 196.793 118.459C196.28 117.792 195.792 117.073 195.33 116.303L188.862 105.908H184.781ZM189.632 95.667C191.583 95.667 193.123 95.1793 194.252 94.204C195.381 93.1773 195.946 91.6887 195.946 89.738C195.946 87.7873 195.304 86.3243 194.021 85.349C192.789 84.3223 190.813 83.809 188.092 83.809C187.322 83.809 186.706 83.8347 186.244 83.886C185.782 83.9373 185.269 84.0143 184.704 84.117V95.667H189.632ZM215.393 97.592C215.393 93.588 216.009 90.046 217.241 86.966C218.525 83.886 220.244 81.3193 222.4 79.266C224.608 77.1613 227.174 75.57 230.1 74.492C233.078 73.414 236.286 72.875 239.725 72.875C243.165 72.875 246.347 73.414 249.273 74.492C252.251 75.57 254.843 77.1613 257.05 79.266C259.258 81.3193 260.977 83.886 262.209 86.966C263.493 90.046 264.134 93.588 264.134 97.592C264.134 101.596 263.518 105.164 262.286 108.295C261.054 111.375 259.335 113.967 257.127 116.072C254.971 118.125 252.405 119.691 249.427 120.769C246.45 121.847 243.216 122.386 239.725 122.386C236.235 122.386 233.001 121.847 230.023 120.769C227.046 119.64 224.479 118.023 222.323 115.918C220.167 113.813 218.473 111.221 217.241 108.141C216.009 105.061 215.393 101.545 215.393 97.592ZM229.253 97.592C229.253 102.263 230.203 105.754 232.102 108.064C234.002 110.374 236.543 111.529 239.725 111.529C242.959 111.529 245.526 110.374 247.425 108.064C249.325 105.754 250.274 102.263 250.274 97.592C250.274 92.972 249.325 89.507 247.425 87.197C245.577 84.887 243.036 83.732 239.802 83.732C236.62 83.732 234.053 84.887 232.102 87.197C230.203 89.4557 229.253 92.9207 229.253 97.592ZM281.251 75.724C282.123 75.2107 283.432 74.723 285.178 74.261C286.974 73.799 288.771 73.568 290.568 73.568C293.134 73.568 295.393 73.953 297.344 74.723C299.346 75.4417 300.629 76.5967 301.194 78.188C302.118 80.8573 303.119 83.963 304.197 87.505C305.275 91.047 306.353 94.7173 307.431 98.516C308.509 102.263 309.561 105.985 310.588 109.681C311.614 113.326 312.513 116.56 313.283 119.383C312.667 120.102 311.743 120.666 310.511 121.077C309.279 121.539 307.816 121.77 306.122 121.77C304.89 121.77 303.837 121.667 302.965 121.462C302.143 121.257 301.45 120.949 300.886 120.538C300.372 120.127 299.936 119.588 299.577 118.921C299.269 118.254 298.986 117.484 298.73 116.611L297.344 111.298H283.407C282.996 112.838 282.585 114.429 282.175 116.072C281.764 117.715 281.353 119.306 280.943 120.846C280.224 121.103 279.454 121.308 278.633 121.462C277.863 121.667 276.913 121.77 275.784 121.77C273.166 121.77 271.215 121.334 269.932 120.461C268.7 119.537 268.084 118.279 268.084 116.688C268.084 115.969 268.186 115.251 268.392 114.532C268.597 113.813 268.828 112.966 269.085 111.991C269.444 110.605 269.932 108.885 270.548 106.832C271.215 104.779 271.934 102.571 272.704 100.21C273.474 97.7973 274.295 95.3333 275.168 92.818C276.04 90.3027 276.861 87.9413 277.631 85.734C278.402 83.4753 279.095 81.4733 279.711 79.728C280.378 77.9827 280.891 76.648 281.251 75.724ZM290.491 85.657C289.772 87.813 288.951 90.2257 288.027 92.895C287.154 95.513 286.358 98.1823 285.64 100.903H295.188C294.469 98.131 293.725 95.436 292.955 92.818C292.236 90.1487 291.569 87.7617 290.953 85.657H290.491Z" fill="white"/>
<path d="M92.44 35.96C89.36 35.96 87 36.9 85.36 38.78C83.72 40.66 82.9 43.32 82.9 46.76C82.9 50.24 83.8 52.92 85.6 54.8C87.44 56.68 89.9 57.62 92.98 57.62C94.62 57.62 96 57.4 97.12 56.96C98.28 56.52 99.38 56.02 100.42 55.46C101.1 56.02 101.62 56.7 101.98 57.5C102.38 58.26 102.58 59.16 102.58 60.2C102.58 61.84 101.66 63.24 99.82 64.4C98.02 65.52 95.26 66.08 91.54 66.08C88.86 66.08 86.34 65.7 83.98 64.94C81.62 64.18 79.56 63.02 77.8 61.46C76.04 59.86 74.64 57.86 73.6 55.46C72.6 53.02 72.1 50.12 72.1 46.76C72.1 43.64 72.58 40.9 73.54 38.54C74.54 36.14 75.88 34.12 77.56 32.48C79.28 30.84 81.28 29.6 83.56 28.76C85.84 27.92 88.28 27.5 90.88 27.5C94.56 27.5 97.4 28.1 99.4 29.3C101.44 30.5 102.46 32.04 102.46 33.92C102.46 34.96 102.2 35.86 101.68 36.62C101.16 37.38 100.56 37.98 99.88 38.42C98.84 37.74 97.72 37.16 96.52 36.68C95.36 36.2 94 35.96 92.44 35.96ZM116.796 29.72C117.476 29.32 118.496 28.94 119.856 28.58C121.256 28.22 122.656 28.04 124.056 28.04C126.056 28.04 127.816 28.34 129.336 28.94C130.896 29.5 131.896 30.4 132.336 31.64C133.056 33.72 133.836 36.14 134.676 38.9C135.516 41.66 136.356 44.52 137.196 47.48C138.036 50.4 138.856 53.3 139.656 56.18C140.456 59.02 141.156 61.54 141.756 63.74C141.276 64.3 140.556 64.74 139.596 65.06C138.636 65.42 137.496 65.6 136.176 65.6C135.216 65.6 134.396 65.52 133.716 65.36C133.076 65.2 132.536 64.96 132.096 64.64C131.696 64.32 131.356 63.9 131.076 63.38C130.836 62.86 130.616 62.26 130.416 61.58L129.336 57.44H118.476C118.156 58.64 117.836 59.88 117.516 61.16C117.196 62.44 116.876 63.68 116.556 64.88C115.996 65.08 115.396 65.24 114.756 65.36C114.156 65.52 113.416 65.6 112.536 65.6C110.496 65.6 108.976 65.26 107.976 64.58C107.016 63.86 106.536 62.88 106.536 61.64C106.536 61.08 106.616 60.52 106.776 59.96C106.936 59.4 107.116 58.74 107.316 57.98C107.596 56.9 107.976 55.56 108.456 53.96C108.976 52.36 109.536 50.64 110.136 48.8C110.736 46.92 111.376 45 112.056 43.04C112.736 41.08 113.376 39.24 113.976 37.52C114.576 35.76 115.116 34.2 115.596 32.84C116.116 31.48 116.516 30.44 116.796 29.72ZM123.996 37.46C123.436 39.14 122.796 41.02 122.076 43.1C121.396 45.14 120.776 47.22 120.216 49.34H127.656C127.096 47.18 126.516 45.08 125.916 43.04C125.356 40.96 124.836 39.1 124.356 37.46H123.996ZM157.113 53.24V64.76C156.673 64.88 155.973 65 155.013 65.12C154.093 65.24 153.173 65.3 152.253 65.3C151.333 65.3 150.513 65.22 149.793 65.06C149.113 64.94 148.533 64.7 148.053 64.34C147.613 63.98 147.273 63.48 147.033 62.84C146.793 62.2 146.673 61.36 146.673 60.32V32.06C146.673 31.22 146.893 30.58 147.333 30.14C147.813 29.66 148.453 29.28 149.253 29C150.613 28.52 152.193 28.18 153.993 27.98C155.793 27.74 157.713 27.62 159.753 27.62C165.273 27.62 169.433 28.78 172.233 31.1C175.033 33.42 176.433 36.56 176.433 40.52C176.433 43 175.793 45.12 174.513 46.88C173.233 48.64 171.713 50 169.953 50.96C171.393 52.92 172.813 54.76 174.213 56.48C175.613 58.2 176.713 59.76 177.513 61.16C177.113 62.56 176.373 63.64 175.293 64.4C174.253 65.12 173.073 65.48 171.753 65.48C170.873 65.48 170.113 65.38 169.473 65.18C168.833 64.98 168.273 64.7 167.793 64.34C167.313 63.98 166.873 63.54 166.473 63.02C166.073 62.5 165.693 61.94 165.333 61.34L160.293 53.24H157.113ZM160.893 45.26C162.413 45.26 163.613 44.88 164.493 44.12C165.373 43.32 165.813 42.16 165.813 40.64C165.813 39.12 165.313 37.98 164.313 37.22C163.353 36.42 161.813 36.02 159.693 36.02C159.093 36.02 158.613 36.04 158.253 36.08C157.893 36.12 157.493 36.18 157.053 36.26V45.26H160.893ZM191.445 29.72C192.125 29.32 193.145 28.94 194.505 28.58C195.905 28.22 197.305 28.04 198.705 28.04C200.705 28.04 202.465 28.34 203.985 28.94C205.545 29.5 206.545 30.4 206.985 31.64C207.705 33.72 208.485 36.14 209.325 38.9C210.165 41.66 211.005 44.52 211.845 47.48C212.685 50.4 213.505 53.3 214.305 56.18C215.105 59.02 215.805 61.54 216.405 63.74C215.925 64.3 215.205 64.74 214.245 65.06C213.285 65.42 212.145 65.6 210.825 65.6C209.865 65.6 209.045 65.52 208.365 65.36C207.725 65.2 207.185 64.96 206.745 64.64C206.345 64.32 206.005 63.9 205.725 63.38C205.485 62.86 205.265 62.26 205.065 61.58L203.985 57.44H193.125C192.805 58.64 192.485 59.88 192.165 61.16C191.845 62.44 191.525 63.68 191.205 64.88C190.645 65.08 190.045 65.24 189.405 65.36C188.805 65.52 188.065 65.6 187.185 65.6C185.145 65.6 183.625 65.26 182.625 64.58C181.665 63.86 181.185 62.88 181.185 61.64C181.185 61.08 181.265 60.52 181.425 59.96C181.585 59.4 181.765 58.74 181.965 57.98C182.245 56.9 182.625 55.56 183.105 53.96C183.625 52.36 184.185 50.64 184.785 48.8C185.385 46.92 186.025 45 186.705 43.04C187.385 41.08 188.025 39.24 188.625 37.52C189.225 35.76 189.765 34.2 190.245 32.84C190.765 31.48 191.165 30.44 191.445 29.72ZM198.645 37.46C198.085 39.14 197.445 41.02 196.725 43.1C196.045 45.14 195.425 47.22 194.865 49.34H202.305C201.745 47.18 201.165 45.08 200.565 43.04C200.005 40.96 199.485 39.1 199.005 37.46H198.645ZM231.534 46.76C231.534 43.64 232.014 40.88 232.974 38.48C233.974 36.08 235.314 34.08 236.994 32.48C238.714 30.84 240.714 29.6 242.994 28.76C245.314 27.92 247.814 27.5 250.494 27.5C253.174 27.5 255.654 27.92 257.934 28.76C260.254 29.6 262.274 30.84 263.994 32.48C265.714 34.08 267.054 36.08 268.014 38.48C269.014 40.88 269.514 43.64 269.514 46.76C269.514 49.88 269.034 52.66 268.074 55.1C267.114 57.5 265.774 59.52 264.054 61.16C262.374 62.76 260.374 63.98 258.054 64.82C255.734 65.66 253.214 66.08 250.494 66.08C247.774 66.08 245.254 65.66 242.934 64.82C240.614 63.94 238.614 62.68 236.934 61.04C235.254 59.4 233.934 57.38 232.974 54.98C232.014 52.58 231.534 49.84 231.534 46.76ZM242.334 46.76C242.334 50.4 243.074 53.12 244.554 54.92C246.034 56.72 248.014 57.62 250.494 57.62C253.014 57.62 255.014 56.72 256.494 54.92C257.974 53.12 258.714 50.4 258.714 46.76C258.714 43.16 257.974 40.46 256.494 38.66C255.054 36.86 253.074 35.96 250.554 35.96C248.074 35.96 246.074 36.86 244.554 38.66C243.074 40.42 242.334 43.12 242.334 46.76ZM307.741 51.56C307.741 53.72 307.361 55.7 306.601 57.5C305.881 59.26 304.821 60.78 303.421 62.06C302.021 63.3 300.321 64.26 298.321 64.94C296.321 65.62 294.061 65.96 291.541 65.96C289.021 65.96 286.761 65.62 284.761 64.94C282.761 64.26 281.061 63.3 279.661 62.06C278.261 60.78 277.181 59.26 276.421 57.5C275.701 55.7 275.341 53.72 275.341 51.56V28.64C275.781 28.56 276.481 28.46 277.441 28.34C278.401 28.18 279.321 28.1 280.201 28.1C281.121 28.1 281.921 28.18 282.601 28.34C283.321 28.46 283.921 28.7 284.401 29.06C284.881 29.42 285.241 29.92 285.481 30.56C285.721 31.2 285.841 32.04 285.841 33.08V51.38C285.841 53.3 286.361 54.8 287.401 55.88C288.481 56.96 289.861 57.5 291.541 57.5C293.261 57.5 294.641 56.96 295.681 55.88C296.721 54.8 297.241 53.3 297.241 51.38V28.64C297.681 28.56 298.381 28.46 299.341 28.34C300.301 28.18 301.221 28.1 302.101 28.1C303.021 28.1 303.821 28.18 304.501 28.34C305.221 28.46 305.821 28.7 306.301 29.06C306.781 29.42 307.141 29.92 307.381 30.56C307.621 31.2 307.741 32.04 307.741 33.08V51.56Z" fill="#4A3D4B"/>
<path d="M96.798 82.732C92.8453 82.732 89.8167 83.9383 87.712 86.351C85.6073 88.7637 84.555 92.1773 84.555 96.592C84.555 101.058 85.71 104.497 88.02 106.91C90.3813 109.323 93.5383 110.529 97.491 110.529C99.5957 110.529 101.367 110.247 102.804 109.682C104.293 109.117 105.704 108.476 107.039 107.757C107.912 108.476 108.579 109.348 109.041 110.375C109.554 111.35 109.811 112.505 109.811 113.84C109.811 115.945 108.63 117.741 106.269 119.23C103.959 120.667 100.417 121.386 95.643 121.386C92.2037 121.386 88.9697 120.898 85.941 119.923C82.9123 118.948 80.2687 117.459 78.01 115.457C75.7513 113.404 73.9547 110.837 72.62 107.757C71.3367 104.626 70.695 100.904 70.695 96.592C70.695 92.588 71.311 89.0717 72.543 86.043C73.8263 82.963 75.546 80.3707 77.702 78.266C79.9093 76.1613 82.476 74.57 85.402 73.492C88.328 72.414 91.4593 71.875 94.796 71.875C99.5187 71.875 103.163 72.645 105.73 74.185C108.348 75.725 109.657 77.7013 109.657 80.114C109.657 81.4487 109.323 82.6037 108.656 83.579C107.989 84.5543 107.219 85.3243 106.346 85.889C105.011 85.0163 103.574 84.272 102.034 83.656C100.545 83.04 98.8 82.732 96.798 82.732ZM113.932 96.592C113.932 92.588 114.548 89.046 115.78 85.966C117.064 82.886 118.783 80.3193 120.939 78.266C123.147 76.1613 125.713 74.57 128.639 73.492C131.617 72.414 134.825 71.875 138.264 71.875C141.704 71.875 144.886 72.414 147.812 73.492C150.79 74.57 153.382 76.1613 155.589 78.266C157.797 80.3193 159.516 82.886 160.748 85.966C162.032 89.046 162.673 92.588 162.673 96.592C162.673 100.596 162.057 104.164 160.825 107.295C159.593 110.375 157.874 112.967 155.666 115.072C153.51 117.125 150.944 118.691 147.966 119.769C144.989 120.847 141.755 121.386 138.264 121.386C134.774 121.386 131.54 120.847 128.562 119.769C125.585 118.64 123.018 117.023 120.862 114.918C118.706 112.813 117.012 110.221 115.78 107.141C114.548 104.061 113.932 100.545 113.932 96.592ZM127.792 96.592C127.792 101.263 128.742 104.754 130.641 107.064C132.541 109.374 135.082 110.529 138.264 110.529C141.498 110.529 144.065 109.374 145.964 107.064C147.864 104.754 148.813 101.263 148.813 96.592C148.813 91.972 147.864 88.507 145.964 86.197C144.116 83.887 141.575 82.732 138.341 82.732C135.159 82.732 132.592 83.887 130.641 86.197C128.742 88.4557 127.792 91.9207 127.792 96.592ZM183.781 104.908V119.692C183.216 119.846 182.318 120 181.086 120.154C179.905 120.308 178.725 120.385 177.544 120.385C176.363 120.385 175.311 120.282 174.387 120.077C173.514 119.923 172.77 119.615 172.154 119.153C171.589 118.691 171.153 118.049 170.845 117.228C170.537 116.407 170.383 115.329 170.383 113.994V77.727C170.383 76.649 170.665 75.8277 171.23 75.263C171.846 74.647 172.667 74.1593 173.694 73.8C175.439 73.184 177.467 72.7477 179.777 72.491C182.087 72.183 184.551 72.029 187.169 72.029C194.253 72.029 199.592 73.5177 203.185 76.495C206.778 79.4723 208.575 83.502 208.575 88.584C208.575 91.7667 207.754 94.4873 206.111 96.746C204.468 99.0047 202.518 100.75 200.259 101.982C202.107 104.497 203.929 106.859 205.726 109.066C207.523 111.273 208.934 113.275 209.961 115.072C209.448 116.869 208.498 118.255 207.112 119.23C205.777 120.154 204.263 120.616 202.569 120.616C201.44 120.616 200.464 120.488 199.643 120.231C198.822 119.974 198.103 119.615 197.487 119.153C196.871 118.691 196.306 118.126 195.793 117.459C195.28 116.792 194.792 116.073 194.33 115.303L187.862 104.908H183.781ZM188.632 94.667C190.583 94.667 192.123 94.1793 193.252 93.204C194.381 92.1773 194.946 90.6887 194.946 88.738C194.946 86.7873 194.304 85.3243 193.021 84.349C191.789 83.3223 189.813 82.809 187.092 82.809C186.322 82.809 185.706 82.8347 185.244 82.886C184.782 82.9373 184.269 83.0143 183.704 83.117V94.667H188.632ZM214.393 96.592C214.393 92.588 215.009 89.046 216.241 85.966C217.525 82.886 219.244 80.3193 221.4 78.266C223.608 76.1613 226.174 74.57 229.1 73.492C232.078 72.414 235.286 71.875 238.725 71.875C242.165 71.875 245.347 72.414 248.273 73.492C251.251 74.57 253.843 76.1613 256.05 78.266C258.258 80.3193 259.977 82.886 261.209 85.966C262.493 89.046 263.134 92.588 263.134 96.592C263.134 100.596 262.518 104.164 261.286 107.295C260.054 110.375 258.335 112.967 256.127 115.072C253.971 117.125 251.405 118.691 248.427 119.769C245.45 120.847 242.216 121.386 238.725 121.386C235.235 121.386 232.001 120.847 229.023 119.769C226.046 118.64 223.479 117.023 221.323 114.918C219.167 112.813 217.473 110.221 216.241 107.141C215.009 104.061 214.393 100.545 214.393 96.592ZM228.253 96.592C228.253 101.263 229.203 104.754 231.102 107.064C233.002 109.374 235.543 110.529 238.725 110.529C241.959 110.529 244.526 109.374 246.425 107.064C248.325 104.754 249.274 101.263 249.274 96.592C249.274 91.972 248.325 88.507 246.425 86.197C244.577 83.887 242.036 82.732 238.802 82.732C235.62 82.732 233.053 83.887 231.102 86.197C229.203 88.4557 228.253 91.9207 228.253 96.592ZM280.251 74.724C281.123 74.2107 282.432 73.723 284.178 73.261C285.974 72.799 287.771 72.568 289.568 72.568C292.134 72.568 294.393 72.953 296.344 73.723C298.346 74.4417 299.629 75.5967 300.194 77.188C301.118 79.8573 302.119 82.963 303.197 86.505C304.275 90.047 305.353 93.7173 306.431 97.516C307.509 101.263 308.561 104.985 309.588 108.681C310.614 112.326 311.513 115.56 312.283 118.383C311.667 119.102 310.743 119.666 309.511 120.077C308.279 120.539 306.816 120.77 305.122 120.77C303.89 120.77 302.837 120.667 301.965 120.462C301.143 120.257 300.45 119.949 299.886 119.538C299.372 119.127 298.936 118.588 298.577 117.921C298.269 117.254 297.986 116.484 297.73 115.611L296.344 110.298H282.407C281.996 111.838 281.585 113.429 281.175 115.072C280.764 116.715 280.353 118.306 279.943 119.846C279.224 120.103 278.454 120.308 277.633 120.462C276.863 120.667 275.913 120.77 274.784 120.77C272.166 120.77 270.215 120.334 268.932 119.461C267.7 118.537 267.084 117.279 267.084 115.688C267.084 114.969 267.186 114.251 267.392 113.532C267.597 112.813 267.828 111.966 268.085 110.991C268.444 109.605 268.932 107.885 269.548 105.832C270.215 103.779 270.934 101.571 271.704 99.21C272.474 96.7973 273.295 94.3333 274.168 91.818C275.04 89.3027 275.861 86.9413 276.631 84.734C277.402 82.4753 278.095 80.4733 278.711 78.728C279.378 76.9827 279.891 75.648 280.251 74.724ZM289.491 84.657C288.772 86.813 287.951 89.2257 287.027 91.895C286.154 94.513 285.358 97.1823 284.64 99.903H294.188C293.469 97.131 292.725 94.436 291.955 91.818C291.236 89.1487 290.569 86.7617 289.953 84.657H289.491Z" fill="#4A3D4B"/>
<path d="M88.44 33.96C85.36 33.96 83 34.9 81.36 36.78C79.72 38.66 78.9 41.32 78.9 44.76C78.9 48.24 79.8 50.92 81.6 52.8C83.44 54.68 85.9 55.62 88.98 55.62C90.62 55.62 92 55.4 93.12 54.96C94.28 54.52 95.38 54.02 96.42 53.46C97.1 54.02 97.62 54.7 97.98 55.5C98.38 56.26 98.58 57.16 98.58 58.2C98.58 59.84 97.66 61.24 95.82 62.4C94.02 63.52 91.26 64.08 87.54 64.08C84.86 64.08 82.34 63.7 79.98 62.94C77.62 62.18 75.56 61.02 73.8 59.46C72.04 57.86 70.64 55.86 69.6 53.46C68.6 51.02 68.1 48.12 68.1 44.76C68.1 41.64 68.58 38.9 69.54 36.54C70.54 34.14 71.88 32.12 73.56 30.48C75.28 28.84 77.28 27.6 79.56 26.76C81.84 25.92 84.28 25.5 86.88 25.5C90.56 25.5 93.4 26.1 95.4 27.3C97.44 28.5 98.46 30.04 98.46 31.92C98.46 32.96 98.2 33.86 97.68 34.62C97.16 35.38 96.56 35.98 95.88 36.42C94.84 35.74 93.72 35.16 92.52 34.68C91.36 34.2 90 33.96 88.44 33.96ZM112.796 27.72C113.476 27.32 114.496 26.94 115.856 26.58C117.256 26.22 118.656 26.04 120.056 26.04C122.056 26.04 123.816 26.34 125.336 26.94C126.896 27.5 127.896 28.4 128.336 29.64C129.056 31.72 129.836 34.14 130.676 36.9C131.516 39.66 132.356 42.52 133.196 45.48C134.036 48.4 134.856 51.3 135.656 54.18C136.456 57.02 137.156 59.54 137.756 61.74C137.276 62.3 136.556 62.74 135.596 63.06C134.636 63.42 133.496 63.6 132.176 63.6C131.216 63.6 130.396 63.52 129.716 63.36C129.076 63.2 128.536 62.96 128.096 62.64C127.696 62.32 127.356 61.9 127.076 61.38C126.836 60.86 126.616 60.26 126.416 59.58L125.336 55.44H114.476C114.156 56.64 113.836 57.88 113.516 59.16C113.196 60.44 112.876 61.68 112.556 62.88C111.996 63.08 111.396 63.24 110.756 63.36C110.156 63.52 109.416 63.6 108.536 63.6C106.496 63.6 104.976 63.26 103.976 62.58C103.016 61.86 102.536 60.88 102.536 59.64C102.536 59.08 102.616 58.52 102.776 57.96C102.936 57.4 103.116 56.74 103.316 55.98C103.596 54.9 103.976 53.56 104.456 51.96C104.976 50.36 105.536 48.64 106.136 46.8C106.736 44.92 107.376 43 108.056 41.04C108.736 39.08 109.376 37.24 109.976 35.52C110.576 33.76 111.116 32.2 111.596 30.84C112.116 29.48 112.516 28.44 112.796 27.72ZM119.996 35.46C119.436 37.14 118.796 39.02 118.076 41.1C117.396 43.14 116.776 45.22 116.216 47.34H123.656C123.096 45.18 122.516 43.08 121.916 41.04C121.356 38.96 120.836 37.1 120.356 35.46H119.996ZM153.113 51.24V62.76C152.673 62.88 151.973 63 151.013 63.12C150.093 63.24 149.173 63.3 148.253 63.3C147.333 63.3 146.513 63.22 145.793 63.06C145.113 62.94 144.533 62.7 144.053 62.34C143.613 61.98 143.273 61.48 143.033 60.84C142.793 60.2 142.673 59.36 142.673 58.32V30.06C142.673 29.22 142.893 28.58 143.333 28.14C143.813 27.66 144.453 27.28 145.253 27C146.613 26.52 148.193 26.18 149.993 25.98C151.793 25.74 153.713 25.62 155.753 25.62C161.273 25.62 165.433 26.78 168.233 29.1C171.033 31.42 172.433 34.56 172.433 38.52C172.433 41 171.793 43.12 170.513 44.88C169.233 46.64 167.713 48 165.953 48.96C167.393 50.92 168.813 52.76 170.213 54.48C171.613 56.2 172.713 57.76 173.513 59.16C173.113 60.56 172.373 61.64 171.293 62.4C170.253 63.12 169.073 63.48 167.753 63.48C166.873 63.48 166.113 63.38 165.473 63.18C164.833 62.98 164.273 62.7 163.793 62.34C163.313 61.98 162.873 61.54 162.473 61.02C162.073 60.5 161.693 59.94 161.333 59.34L156.293 51.24H153.113ZM156.893 43.26C158.413 43.26 159.613 42.88 160.493 42.12C161.373 41.32 161.813 40.16 161.813 38.64C161.813 37.12 161.313 35.98 160.313 35.22C159.353 34.42 157.813 34.02 155.693 34.02C155.093 34.02 154.613 34.04 154.253 34.08C153.893 34.12 153.493 34.18 153.053 34.26V43.26H156.893ZM187.445 27.72C188.125 27.32 189.145 26.94 190.505 26.58C191.905 26.22 193.305 26.04 194.705 26.04C196.705 26.04 198.465 26.34 199.985 26.94C201.545 27.5 202.545 28.4 202.985 29.64C203.705 31.72 204.485 34.14 205.325 36.9C206.165 39.66 207.005 42.52 207.845 45.48C208.685 48.4 209.505 51.3 210.305 54.18C211.105 57.02 211.805 59.54 212.405 61.74C211.925 62.3 211.205 62.74 210.245 63.06C209.285 63.42 208.145 63.6 206.825 63.6C205.865 63.6 205.045 63.52 204.365 63.36C203.725 63.2 203.185 62.96 202.745 62.64C202.345 62.32 202.005 61.9 201.725 61.38C201.485 60.86 201.265 60.26 201.065 59.58L199.985 55.44H189.125C188.805 56.64 188.485 57.88 188.165 59.16C187.845 60.44 187.525 61.68 187.205 62.88C186.645 63.08 186.045 63.24 185.405 63.36C184.805 63.52 184.065 63.6 183.185 63.6C181.145 63.6 179.625 63.26 178.625 62.58C177.665 61.86 177.185 60.88 177.185 59.64C177.185 59.08 177.265 58.52 177.425 57.96C177.585 57.4 177.765 56.74 177.965 55.98C178.245 54.9 178.625 53.56 179.105 51.96C179.625 50.36 180.185 48.64 180.785 46.8C181.385 44.92 182.025 43 182.705 41.04C183.385 39.08 184.025 37.24 184.625 35.52C185.225 33.76 185.765 32.2 186.245 30.84C186.765 29.48 187.165 28.44 187.445 27.72ZM194.645 35.46C194.085 37.14 193.445 39.02 192.725 41.1C192.045 43.14 191.425 45.22 190.865 47.34H198.305C197.745 45.18 197.165 43.08 196.565 41.04C196.005 38.96 195.485 37.1 195.005 35.46H194.645Z" fill="white"/>
<path d="M227.534 44.76C227.534 41.64 228.014 38.88 228.974 36.48C229.974 34.08 231.314 32.08 232.994 30.48C234.714 28.84 236.714 27.6 238.994 26.76C241.314 25.92 243.814 25.5 246.494 25.5C249.174 25.5 251.654 25.92 253.934 26.76C256.254 27.6 258.274 28.84 259.994 30.48C261.714 32.08 263.054 34.08 264.014 36.48C265.014 38.88 265.514 41.64 265.514 44.76C265.514 47.88 265.034 50.66 264.074 53.1C263.114 55.5 261.774 57.52 260.054 59.16C258.374 60.76 256.374 61.98 254.054 62.82C251.734 63.66 249.214 64.08 246.494 64.08C243.774 64.08 241.254 63.66 238.934 62.82C236.614 61.94 234.614 60.68 232.934 59.04C231.254 57.4 229.934 55.38 228.974 52.98C228.014 50.58 227.534 47.84 227.534 44.76ZM238.334 44.76C238.334 48.4 239.074 51.12 240.554 52.92C242.034 54.72 244.014 55.62 246.494 55.62C249.014 55.62 251.014 54.72 252.494 52.92C253.974 51.12 254.714 48.4 254.714 44.76C254.714 41.16 253.974 38.46 252.494 36.66C251.054 34.86 249.074 33.96 246.554 33.96C244.074 33.96 242.074 34.86 240.554 36.66C239.074 38.42 238.334 41.12 238.334 44.76ZM303.741 49.56C303.741 51.72 303.361 53.7 302.601 55.5C301.881 57.26 300.821 58.78 299.421 60.06C298.021 61.3 296.321 62.26 294.321 62.94C292.321 63.62 290.061 63.96 287.541 63.96C285.021 63.96 282.761 63.62 280.761 62.94C278.761 62.26 277.061 61.3 275.661 60.06C274.261 58.78 273.181 57.26 272.421 55.5C271.701 53.7 271.341 51.72 271.341 49.56V26.64C271.781 26.56 272.481 26.46 273.441 26.34C274.401 26.18 275.321 26.1 276.201 26.1C277.121 26.1 277.921 26.18 278.601 26.34C279.321 26.46 279.921 26.7 280.401 27.06C280.881 27.42 281.241 27.92 281.481 28.56C281.721 29.2 281.841 30.04 281.841 31.08V49.38C281.841 51.3 282.361 52.8 283.401 53.88C284.481 54.96 285.861 55.5 287.541 55.5C289.261 55.5 290.641 54.96 291.681 53.88C292.721 52.8 293.241 51.3 293.241 49.38V26.64C293.681 26.56 294.381 26.46 295.341 26.34C296.301 26.18 297.221 26.1 298.101 26.1C299.021 26.1 299.821 26.18 300.501 26.34C301.221 26.46 301.821 26.7 302.301 27.06C302.781 27.42 303.141 27.92 303.381 28.56C303.621 29.2 303.741 30.04 303.741 31.08V49.56Z" fill="#AE8D5B"/>
<path d="M92.798 80.732C88.8453 80.732 85.8167 81.9383 83.712 84.351C81.6073 86.7637 80.555 90.1773 80.555 94.592C80.555 99.058 81.71 102.497 84.02 104.91C86.3813 107.323 89.5383 108.529 93.491 108.529C95.5957 108.529 97.3667 108.247 98.804 107.682C100.293 107.117 101.704 106.476 103.039 105.757C103.912 106.476 104.579 107.348 105.041 108.375C105.554 109.35 105.811 110.505 105.811 111.84C105.811 113.945 104.63 115.741 102.269 117.23C99.959 118.667 96.417 119.386 91.643 119.386C88.2037 119.386 84.9697 118.898 81.941 117.923C78.9123 116.948 76.2687 115.459 74.01 113.457C71.7513 111.404 69.9547 108.837 68.62 105.757C67.3367 102.626 66.695 98.904 66.695 94.592C66.695 90.588 67.311 87.0717 68.543 84.043C69.8263 80.963 71.546 78.3707 73.702 76.266C75.9093 74.1613 78.476 72.57 81.402 71.492C84.328 70.414 87.4593 69.875 90.796 69.875C95.5187 69.875 99.1633 70.645 101.73 72.185C104.348 73.725 105.657 75.7013 105.657 78.114C105.657 79.4487 105.323 80.6037 104.656 81.579C103.989 82.5543 103.219 83.3243 102.346 83.889C101.011 83.0163 99.574 82.272 98.034 81.656C96.5453 81.04 94.8 80.732 92.798 80.732ZM109.932 94.592C109.932 90.588 110.548 87.046 111.78 83.966C113.064 80.886 114.783 78.3193 116.939 76.266C119.147 74.1613 121.713 72.57 124.639 71.492C127.617 70.414 130.825 69.875 134.264 69.875C137.704 69.875 140.886 70.414 143.812 71.492C146.79 72.57 149.382 74.1613 151.589 76.266C153.797 78.3193 155.516 80.886 156.748 83.966C158.032 87.046 158.673 90.588 158.673 94.592C158.673 98.596 158.057 102.164 156.825 105.295C155.593 108.375 153.874 110.967 151.666 113.072C149.51 115.125 146.944 116.691 143.966 117.769C140.989 118.847 137.755 119.386 134.264 119.386C130.774 119.386 127.54 118.847 124.562 117.769C121.585 116.64 119.018 115.023 116.862 112.918C114.706 110.813 113.012 108.221 111.78 105.141C110.548 102.061 109.932 98.5447 109.932 94.592ZM123.792 94.592C123.792 99.2633 124.742 102.754 126.641 105.064C128.541 107.374 131.082 108.529 134.264 108.529C137.498 108.529 140.065 107.374 141.964 105.064C143.864 102.754 144.813 99.2633 144.813 94.592C144.813 89.972 143.864 86.507 141.964 84.197C140.116 81.887 137.575 80.732 134.341 80.732C131.159 80.732 128.592 81.887 126.641 84.197C124.742 86.4557 123.792 89.9207 123.792 94.592ZM179.781 102.908V117.692C179.216 117.846 178.318 118 177.086 118.154C175.905 118.308 174.725 118.385 173.544 118.385C172.363 118.385 171.311 118.282 170.387 118.077C169.514 117.923 168.77 117.615 168.154 117.153C167.589 116.691 167.153 116.049 166.845 115.228C166.537 114.407 166.383 113.329 166.383 111.994V75.727C166.383 74.649 166.665 73.8277 167.23 73.263C167.846 72.647 168.667 72.1593 169.694 71.8C171.439 71.184 173.467 70.7477 175.777 70.491C178.087 70.183 180.551 70.029 183.169 70.029C190.253 70.029 195.592 71.5177 199.185 74.495C202.778 77.4723 204.575 81.502 204.575 86.584C204.575 89.7667 203.754 92.4873 202.111 94.746C200.468 97.0047 198.518 98.75 196.259 99.982C198.107 102.497 199.929 104.859 201.726 107.066C203.523 109.273 204.934 111.275 205.961 113.072C205.448 114.869 204.498 116.255 203.112 117.23C201.777 118.154 200.263 118.616 198.569 118.616C197.44 118.616 196.464 118.488 195.643 118.231C194.822 117.974 194.103 117.615 193.487 117.153C192.871 116.691 192.306 116.126 191.793 115.459C191.28 114.792 190.792 114.073 190.33 113.303L183.862 102.908H179.781ZM184.632 92.667C186.583 92.667 188.123 92.1793 189.252 91.204C190.381 90.1773 190.946 88.6887 190.946 86.738C190.946 84.7873 190.304 83.3243 189.021 82.349C187.789 81.3223 185.813 80.809 183.092 80.809C182.322 80.809 181.706 80.8347 181.244 80.886C180.782 80.9373 180.269 81.0143 179.704 81.117V92.667H184.632ZM210.393 94.592C210.393 90.588 211.009 87.046 212.241 83.966C213.525 80.886 215.244 78.3193 217.4 76.266C219.608 74.1613 222.174 72.57 225.1 71.492C228.078 70.414 231.286 69.875 234.725 69.875C238.165 69.875 241.347 70.414 244.273 71.492C247.251 72.57 249.843 74.1613 252.05 76.266C254.258 78.3193 255.977 80.886 257.209 83.966C258.493 87.046 259.134 90.588 259.134 94.592C259.134 98.596 258.518 102.164 257.286 105.295C256.054 108.375 254.335 110.967 252.127 113.072C249.971 115.125 247.405 116.691 244.427 117.769C241.45 118.847 238.216 119.386 234.725 119.386C231.235 119.386 228.001 118.847 225.023 117.769C222.046 116.64 219.479 115.023 217.323 112.918C215.167 110.813 213.473 108.221 212.241 105.141C211.009 102.061 210.393 98.5447 210.393 94.592ZM224.253 94.592C224.253 99.2633 225.203 102.754 227.102 105.064C229.002 107.374 231.543 108.529 234.725 108.529C237.959 108.529 240.526 107.374 242.425 105.064C244.325 102.754 245.274 99.2633 245.274 94.592C245.274 89.972 244.325 86.507 242.425 84.197C240.577 81.887 238.036 80.732 234.802 80.732C231.62 80.732 229.053 81.887 227.102 84.197C225.203 86.4557 224.253 89.9207 224.253 94.592ZM276.251 72.724C277.123 72.2107 278.432 71.723 280.178 71.261C281.974 70.799 283.771 70.568 285.568 70.568C288.134 70.568 290.393 70.953 292.344 71.723C294.346 72.4417 295.629 73.5967 296.194 75.188C297.118 77.8573 298.119 80.963 299.197 84.505C300.275 88.047 301.353 91.7173 302.431 95.516C303.509 99.2633 304.561 102.985 305.588 106.681C306.614 110.326 307.513 113.56 308.283 116.383C307.667 117.102 306.743 117.666 305.511 118.077C304.279 118.539 302.816 118.77 301.122 118.77C299.89 118.77 298.837 118.667 297.965 118.462C297.143 118.257 296.45 117.949 295.886 117.538C295.372 117.127 294.936 116.588 294.577 115.921C294.269 115.254 293.986 114.484 293.73 113.611L292.344 108.298H278.407C277.996 109.838 277.585 111.429 277.175 113.072C276.764 114.715 276.353 116.306 275.943 117.846C275.224 118.103 274.454 118.308 273.633 118.462C272.863 118.667 271.913 118.77 270.784 118.77C268.166 118.77 266.215 118.334 264.932 117.461C263.7 116.537 263.084 115.279 263.084 113.688C263.084 112.969 263.186 112.251 263.392 111.532C263.597 110.813 263.828 109.966 264.085 108.991C264.444 107.605 264.932 105.885 265.548 103.832C266.215 101.779 266.934 99.5713 267.704 97.21C268.474 94.7973 269.295 92.3333 270.168 89.818C271.04 87.3027 271.861 84.9413 272.631 82.734C273.402 80.4753 274.095 78.4733 274.711 76.728C275.378 74.9827 275.891 73.648 276.251 72.724ZM285.491 82.657C284.772 84.813 283.951 87.2257 283.027 89.895C282.154 92.513 281.358 95.1823 280.64 97.903H290.188C289.469 95.131 288.725 92.436 287.955 89.818C287.236 87.1487 286.569 84.7617 285.953 82.657H285.491Z" fill="white"/>
<path d="M19.7387 15.7437L62.906 35.1888L58.1623 43.405L19.7387 15.7437Z" fill="#AE8D5B"/>
<path d="M-2.62268e-07 75L53.25 69.8038L53.25 80.1962L-2.62268e-07 75Z" fill="#AE8D5B"/>
<path d="M22.4922 127.152L57.456 101.981L61.7725 109.457L22.4922 127.152Z" fill="#AE8D5B"/>
<path d="M360.133 15.7437L316.965 35.1888L321.709 43.405L360.133 15.7437Z" fill="#AE8D5B"/>
<path d="M379.871 75L326.621 69.8038L326.621 80.1962L379.871 75Z" fill="#AE8D5B"/>
<path d="M357.379 127.152L322.415 101.981L318.099 109.457L357.379 127.152Z" fill="#AE8D5B"/>
</svg>
