<svg width="2246" height="1055" viewBox="0 0 2246 1055" fill="none" xmlns="http://www.w3.org/2000/svg">
<g style="mix-blend-mode:overlay">
<path d="M1064.2 87.7323L1073.08 123.223L1067.8 87.7323H1064.2Z" fill="#4D4D4D"/>
</g>
<g style="mix-blend-mode:overlay">
<path d="M781.408 66.9167H765.794L889.323 203.459L781.408 66.9167Z" fill="#4D4D4D"/>
</g>
<g style="mix-blend-mode:overlay">
<path d="M870.406 36.6191H839.659L1031.65 320.361L870.406 36.6191Z" fill="#4D4D4D"/>
</g>
<g style="mix-blend-mode:overlay">
<path d="M929.918 56.8025H910.221L1014.17 242.472L929.918 56.8025Z" fill="#4D4D4D"/>
</g>
<g style="mix-blend-mode:overlay">
<path d="M1408.48 23.5247L1231.86 370.977L1445.71 23.5247H1408.48Z" fill="#4D4D4D"/>
</g>
<g style="mix-blend-mode:overlay">
<path d="M1075.67 10.0691L1144.31 422.858L1117.58 10.0691H1075.67Z" fill="#4D4D4D"/>
</g>
<g style="mix-blend-mode:overlay">
<path d="M1345.6 85.5649L1327.05 131.531L1350.41 85.5649H1345.6Z" fill="#4D4D4D"/>
</g>
<g style="mix-blend-mode:overlay">
<path d="M1211.27 58.5183L1193.43 235.879L1229.28 58.5183H1211.27Z" fill="#4D4D4D"/>
</g>
<g style="mix-blend-mode:overlay">
<path d="M59.5724 796.454V812.348L719.013 648.487L59.5724 796.454Z" fill="#4D4D4D"/>
</g>
<g style="mix-blend-mode:overlay">
<path d="M25.8227 637.786V653.409L837.017 570.012L25.8227 637.786Z" fill="#4D4D4D"/>
</g>
<g style="mix-blend-mode:overlay">
<path d="M173.313 507.971V510.68L320.742 513.345L173.313 507.971Z" fill="#4D4D4D"/>
</g>
<g style="mix-blend-mode:overlay">
<path d="M622.748 51.7905H596.145L856.354 261.797L622.748 51.7905Z" fill="#4D4D4D"/>
</g>
<g style="mix-blend-mode:overlay">
<path d="M80.2306 488.465V498.986L646.709 516.279L80.2306 488.465Z" fill="#4D4D4D"/>
</g>
<g style="mix-blend-mode:overlay">
<path d="M146.709 591.188V596.2L413.884 579.584L146.709 591.188Z" fill="#4D4D4D"/>
</g>
<g style="mix-blend-mode:overlay">
<path d="M541.617 88.7257L961.866 379.782L656.858 146.567L495.016 21.2219H468.052L558.371 84.5264L541.617 88.7257Z" fill="#4D4D4D"/>
</g>
<g style="mix-blend-mode:overlay">
<path d="M1484.27 64.9752L1381.52 211L1500.6 64.9752H1484.27Z" fill="#4D4D4D"/>
</g>
<g style="mix-blend-mode:overlay">
<path d="M66.2383 692.241V705.109L695.592 608.437L66.2383 692.241Z" fill="#4D4D4D"/>
</g>
<g style="mix-blend-mode:overlay">
<path d="M2122.57 721.545V716.172L1874.61 674.631L2122.57 721.545Z" fill="#4D4D4D"/>
</g>
<g style="mix-blend-mode:overlay">
<path d="M2196.31 719.784V707.548L1616.5 619.228L2196.31 719.784Z" fill="#4D4D4D"/>
</g>
<g style="mix-blend-mode:overlay">
<path d="M2245.68 0L1273.06 464.805L2245.68 38.5607V0Z" fill="#4D4D4D"/>
</g>
<g style="mix-blend-mode:overlay">
<path d="M2053.81 277.646L1471.47 440.919L1951.9 318.554L1587.86 417.665L2237.75 257.101V240.711L2067.62 287.038L2053.81 277.646Z" fill="#4D4D4D"/>
</g>
<g style="mix-blend-mode:overlay">
<path d="M2097.65 393.102V390.257L1961.81 411.615L2097.65 393.102Z" fill="#4D4D4D"/>
</g>
<g style="mix-blend-mode:overlay">
<path d="M1626.35 75.8571L1529.61 169.053L1637.88 75.8571H1626.35Z" fill="#4D4D4D"/>
</g>
<g style="mix-blend-mode:overlay">
<path d="M188.266 388.993L277.324 401.275L28.9455 361.856V381.137L826.087 485.711L188.266 388.993Z" fill="#4D4D4D"/>
</g>
<g style="mix-blend-mode:overlay">
<path d="M2186.76 515.647V505.759L1649.89 524.407L2186.76 515.647Z" fill="#4D4D4D"/>
</g>
<g style="mix-blend-mode:overlay">
<path d="M2204 535.47V524.136L1589.66 534.747L2204 535.47Z" fill="#4D4D4D"/>
</g>
<g style="mix-blend-mode:overlay">
<path d="M2118.78 617.829V613.449L1887.82 598.006L2118.78 617.829Z" fill="#4D4D4D"/>
</g>
<g style="mix-blend-mode:overlay">
<path d="M2224.66 405.971V391.793L1517.24 487.788L2224.66 405.971Z" fill="#4D4D4D"/>
</g>
<g style="mix-blend-mode:overlay">
<path d="M1765.61 47.4558H1735.17L1453.28 278.639L1765.61 47.4558Z" fill="#4D4D4D"/>
</g>
<g style="mix-blend-mode:overlay">
<path d="M2115.78 44.1597H2072.42L1598.49 291.372L2115.78 44.1597Z" fill="#4D4D4D"/>
</g>
<g style="mix-blend-mode:overlay">
<path d="M1883.98 49.4425H1851.79L1526.06 270.918L1883.98 49.4425Z" fill="#4D4D4D"/>
</g>
<g style="mix-blend-mode:overlay">
<path d="M1279.91 413.015L1734.75 60.505L1698.65 52.4678L1279.91 413.015Z" fill="#4D4D4D"/>
</g>
<g style="mix-blend-mode:overlay">
<path d="M2153.56 223.236V212.4L1766.09 336.661L2153.56 223.236Z" fill="#4D4D4D"/>
</g>
<g style="mix-blend-mode:overlay">
<path d="M2140.76 322.438V314.852L1810.89 388.767L2140.76 322.438Z" fill="#4D4D4D"/>
</g>
<g style="mix-blend-mode:overlay">
<path d="M2174.09 127.331V110.986L1694.27 308.169L2174.09 127.331Z" fill="#4D4D4D"/>
</g>
<g style="mix-blend-mode:overlay">
<path d="M2102.09 451.756V448.776L1946.25 463.857L2102.09 451.756Z" fill="#4D4D4D"/>
</g>
<g style="mix-blend-mode:overlay">
<path d="M116.382 645.553V653.409L520.178 607.76L116.382 645.553Z" fill="#4D4D4D"/>
</g>
<g style="mix-blend-mode:overlay">
<path d="M1438.21 952.232H1447.27L1382.6 871.047L1438.21 952.232Z" fill="#4D4D4D"/>
</g>
<g style="mix-blend-mode:overlay">
<path d="M1329.57 947.536H1335.7L1305.61 889.243L1329.57 947.536Z" fill="#4D4D4D"/>
</g>
<g style="mix-blend-mode:overlay">
<path d="M1270.9 999.597H1303.03L1190.97 688.312L1270.9 999.597Z" fill="#4D4D4D"/>
</g>
<g style="mix-blend-mode:overlay">
<path d="M1769.34 1055H1825.67L1241.41 631.374L1769.34 1055Z" fill="#4D4D4D"/>
</g>
<g style="mix-blend-mode:overlay">
<path d="M1760.51 985.058H1794.44L1423.67 744.438L1760.51 985.058Z" fill="#4D4D4D"/>
</g>
<g style="mix-blend-mode:overlay">
<path d="M1045.1 947.716L1058.67 888.566L1039.03 947.716H1045.1Z" fill="#4D4D4D"/>
</g>
<g style="mix-blend-mode:overlay">
<path d="M955.02 1004.38L1098.79 669.98L919.709 1004.38H955.02Z" fill="#4D4D4D"/>
</g>
<g style="mix-blend-mode:overlay">
<path d="M1149.17 340.634L1157.94 31.3813H1126.59L1149.17 340.634Z" fill="#4D4D4D"/>
</g>
<g style="mix-blend-mode:overlay">
<path d="M1219.79 942.704H1223.4L1215.35 907.846L1219.79 942.704Z" fill="#4D4D4D"/>
</g>
<g style="mix-blend-mode:overlay">
<path d="M2197.69 856.959V841.246L1611.64 680.501L2197.69 856.959Z" fill="#4D4D4D"/>
</g>
<g style="mix-blend-mode:overlay">
<path d="M2098.25 593.31V590.737L1959.82 584.551L2098.25 593.31Z" fill="#4D4D4D"/>
</g>
<g style="mix-blend-mode:overlay">
<path d="M1922.77 963.61H1945.95L1670.31 827.293L1922.77 963.61Z" fill="#4D4D4D"/>
</g>
<g style="mix-blend-mode:overlay">
<path d="M2138.42 523.73V517.815L1819.24 526.078L2138.42 523.73Z" fill="#4D4D4D"/>
</g>
<g style="mix-blend-mode:overlay">
<path d="M2146.77 780.108V771.62L1790 693.911L2146.77 780.108Z" fill="#4D4D4D"/>
</g>
<g style="mix-blend-mode:overlay">
<path d="M2112.66 665.284V661.221L1909.38 638.012L2112.66 665.284Z" fill="#4D4D4D"/>
</g>
<g style="mix-blend-mode:overlay">
<path d="M2132.18 1004.16H2197.51L1408.12 670.793L2132.18 1004.16Z" fill="#4D4D4D"/>
</g>
<g style="mix-blend-mode:overlay">
<path d="M2245.68 912.633L1333.89 606.676L2245.68 940.763V912.633Z" fill="#4D4D4D"/>
</g>
<g style="mix-blend-mode:overlay">
<path d="M821.163 968.713L945.952 807.562L802.786 968.713H821.163Z" fill="#4D4D4D"/>
</g>
<g style="mix-blend-mode:overlay">
<path d="M637.521 953.09L744.835 867.796L626.111 953.09H637.521Z" fill="#4D4D4D"/>
</g>
<g style="mix-blend-mode:overlay">
<path d="M73.6248 171.22V188.424L669.649 370.932L73.6248 171.22Z" fill="#4D4D4D"/>
</g>
<g style="mix-blend-mode:overlay">
<path d="M143.706 299.635V306.228L424.514 365.559L143.706 299.635Z" fill="#4D4D4D"/>
</g>
<g style="mix-blend-mode:overlay">
<path d="M161.002 567.257V571.005L363.98 563.058L161.002 567.257Z" fill="#4D4D4D"/>
</g>
<g style="mix-blend-mode:overlay">
<path d="M124.73 39.7798H73.2044L694.271 308.26L124.73 39.7798Z" fill="#4D4D4D"/>
</g>
<g style="mix-blend-mode:overlay">
<path d="M139.623 450.176V455.865L438.686 476.861L139.623 450.176Z" fill="#4D4D4D"/>
</g>
<g style="mix-blend-mode:overlay">
<path d="M329.03 31.5168H280.267L846.025 340.047L329.03 31.5168Z" fill="#4D4D4D"/>
</g>
<g style="mix-blend-mode:overlay">
<path d="M39.9952 66.5104V92.383L787.473 377.976L39.9952 66.5104Z" fill="#4D4D4D"/>
</g>
<g style="mix-blend-mode:overlay">
<path d="M140.704 180.386L874.129 417.575L165.626 167.066L140.704 180.386Z" fill="#4D4D4D"/>
</g>
<g style="mix-blend-mode:overlay">
<path d="M515.734 948.62L615.722 885.134L506.125 948.62H515.734Z" fill="#4D4D4D"/>
</g>
<g style="mix-blend-mode:overlay">
<path d="M789.755 949.252L848.487 882.651L781.948 949.252H789.755Z" fill="#4D4D4D"/>
</g>
<g style="mix-blend-mode:overlay">
<path d="M274.922 984.652H316.839L775.462 746.108L274.922 984.652Z" fill="#4D4D4D"/>
</g>
<g style="mix-blend-mode:overlay">
<path d="M504.024 1001.09H548.102L977.12 682.623L504.024 1001.09Z" fill="#4D4D4D"/>
</g>
<g style="mix-blend-mode:overlay">
<path d="M45.2798 233.938V252.18L768.977 430.082L45.2798 233.938Z" fill="#4D4D4D"/>
</g>
<g style="mix-blend-mode:overlay">
<path d="M113.86 741.864V751.075L528.825 666.278L113.86 741.864Z" fill="#4D4D4D"/>
</g>
<g style="mix-blend-mode:overlay">
<path d="M186.464 973.454H222.796L625.39 789.32L186.464 973.454Z" fill="#4D4D4D"/>
</g>
<g style="mix-blend-mode:overlay">
<path d="M133.858 859.984L927.396 614.758L153.915 832.712L0 875.607V891.772L123.889 853.843L133.858 859.984Z" fill="#4D4D4D"/>
</g>
<g style="mix-blend-mode:overlay">
<path d="M76.3271 922.566V940.718L660.341 725.293L76.3271 922.566Z" fill="#4D4D4D"/>
</g>
</svg>
